<?xml version="1.0" encoding="utf-8"?>
<!-- Generator: Adobe Illustrator 24.2.3, SVG Export Plug-In . SVG Version: 6.00 Build 0)  -->
<svg version="1.1" id="Layer_1" xmlns="http://www.w3.org/2000/svg" xmlns:xlink="http://www.w3.org/1999/xlink" x="0px" y="0px"
	 viewBox="0 0 917 917" style="enable-background:new 0 0 917 917;" xml:space="preserve">
<style type="text/css">
	.st0{fill:none;}
	.st1{fill:#A7A4A5;}
	.st2{fill:#908E90;}
	.st3{fill:#7B7979;}
	.st4{fill:#656463;}
	.st5{fill:#4F4C4D;}
	.st6{fill:#51A2D9;}
</style>
<g id="Group_13268" transform="translate(458.433 0) rotate(45)">
	
		<rect id="Rectangle_7314" x="0" y="0" transform="matrix(-0.7071 0.7071 -0.7071 -0.7071 782.7531 324.116)" class="st0" width="648.5" height="648.3"/>
	<path id="Path_3811" class="st1" d="M260.9,378.7L25.8,143.6l3.9-3.9l235.2,235.2L260.9,378.7z"/>
	
		<rect id="Rectangle_7315" x="192.2" y="159.4" transform="matrix(-0.7071 0.7071 -0.7071 -0.7071 528.0805 333.4712)" class="st2" width="5.5" height="233.4"/>
	
		<rect id="Rectangle_7316" x="243.3" y="224.2" transform="matrix(-0.7071 0.7071 -0.7071 -0.7071 628.14 328.5713)" class="st3" width="5.4" height="140.4"/>
	
		<rect id="Rectangle_7317" x="228.5" y="132.7" transform="matrix(-0.7071 0.7071 -0.7071 -0.7071 569.3873 258.0224)" class="st4" width="5.5" height="228.5"/>
	
		<rect id="Rectangle_7318" x="255.2" y="141.1" transform="matrix(-0.7071 0.7071 -0.7071 -0.7071 610.6161 228.7117)" class="st5" width="5.5" height="199.5"/>
	
		<rect id="Rectangle_7319" x="232.8" y="31" transform="matrix(-0.7071 0.7071 -0.7071 -0.7071 533.3275 150.273)" class="st6" width="5.5" height="309.2"/>
	
		<rect id="Rectangle_7320" x="264.9" y="52.8" transform="matrix(-0.7071 0.7071 -0.7071 -0.7071 587.7726 126.587)" class="st5" width="5.5" height="264.5"/>
	
		<rect id="Rectangle_7321" x="214.9" y="505.3" transform="matrix(-0.7071 0.7071 -0.7071 -0.7071 838.0038 972.2926)" class="st5" width="5.5" height="308.9"/>
	
		<rect id="Rectangle_7322" x="231.3" y="488.9" transform="matrix(-0.7071 0.7071 -0.7071 -0.7071 854.4326 932.7457)" class="st5" width="5.5" height="308.9"/>
	
		<rect id="Rectangle_7323" x="247.7" y="472.5" transform="matrix(-0.7071 0.7071 -0.7071 -0.7071 870.8615 893.1987)" class="st5" width="5.5" height="308.9"/>
	<path id="Path_3812" class="st1" d="M260.2,605.8L41.7,387.4l3.9-3.9l218.4,218.4L260.2,605.8z"/>
	
		<rect id="Rectangle_7324" x="166.8" y="324.5" transform="matrix(-0.7071 0.7071 -0.7071 -0.7071 627.761 697.0797)" class="st2" width="5.5" height="308.1"/>
	
		<rect id="Rectangle_7325" x="183.1" y="307.7" transform="matrix(-0.7071 0.7071 -0.7071 -0.7071 643.8829 657.3007)" class="st3" width="5.5" height="308.6"/>
	
		<rect id="Rectangle_7326" x="199.3" y="291.1" transform="matrix(-0.7071 0.7071 -0.7071 -0.7071 659.8804 617.7231)" class="st4" width="5.5" height="308.9"/>
	
		<rect id="Rectangle_7327" x="215.6" y="274.6" transform="matrix(-0.7071 0.7071 -0.7071 -0.7071 676.1395 578.1078)" class="st6" width="5.5" height="308.9"/>
	
		<rect id="Rectangle_7328" x="232" y="258.3" transform="matrix(-0.7071 0.7071 -0.7071 -0.7071 692.5673 538.5587)" class="st5" width="5.5" height="308.9"/>
	
		<rect id="Rectangle_7329" x="248.4" y="241.9" transform="matrix(-0.7071 0.7071 -0.7071 -0.7071 708.9972 499.0139)" class="st5" width="5.5" height="308.9"/>
	<path id="Path_3813" class="st1" d="M718,377.8L499.5,159.4l3.9-3.9l218.4,218.4L718,377.8z"/>
	
		<rect id="Rectangle_7330" x="624.3" y="95.8" transform="matrix(-0.7071 0.7071 -0.7071 -0.7071 1247.4126 -16.1052)" class="st2" width="5.5" height="308.9"/>
	
		<rect id="Rectangle_7331" x="640.7" y="79.5" transform="matrix(-0.7071 0.7071 -0.7071 -0.7071 1263.8633 -55.6642)" class="st3" width="5.5" height="308.9"/>
	
		<rect id="Rectangle_7332" x="657.1" y="63.1" transform="matrix(-0.7071 0.7071 -0.7071 -0.7071 1280.2789 -95.2056)" class="st4" width="5.5" height="308.9"/>
	<path id="Path_3814" class="st1" d="M274.4,393.6l-3.9-3.9l218.4-218.4l3.9,3.9L274.4,393.6z"/>
	<path id="Path_3815" class="st2" d="M290.8,410l-3.9-3.9l218.4-218.4l3.9,3.9L290.8,410z"/>
	<path id="Path_3816" class="st3" d="M307.2,426.4l-3.9-3.9l218.4-218.4l3.9,3.9L307.2,426.4z"/>
	<path id="Path_3817" class="st4" d="M323.5,442.7l-3.9-3.9l218.4-218.4l3.9,3.9L323.5,442.7z"/>
	<path id="Path_3818" class="st5" d="M339.9,459.1l-3.9-3.9l218.4-218.4l3.9,3.9L339.9,459.1z"/>
	<path id="Path_3819" class="st5" d="M356.3,475.5l-3.9-3.9l218.4-218.4l3.9,3.9L356.3,475.5z"/>
	<path id="Path_3820" class="st5" d="M372.7,492l-3.9-3.9l218.4-218.4l3.9,3.9L372.7,492z"/>
	<path id="Path_3821" class="st1" d="M275,622.9l-3.9-3.9l218.4-218.4l3.9,3.9L275,622.9z"/>
	<path id="Path_3822" class="st2" d="M291.4,639.2l-3.9-3.9L505.8,417l3.9,3.9L291.4,639.2z"/>
	<path id="Path_3823" class="st3" d="M307.8,655.6l-3.9-3.9l218.4-218.4l3.9,3.9L307.8,655.6z"/>
	<path id="Path_3824" class="st4" d="M324.2,672.1l-3.9-3.9l218.4-218.4l3.9,3.9L324.2,672.1z"/>
	<path id="Path_3825" class="st5" d="M340.6,688.5l-3.9-3.9L555,466.2l3.9,3.9L340.6,688.5z"/>
	<path id="Path_3826" class="st6" d="M356.9,704.8l-3.9-3.9l218.4-218.4l3.9,3.9L356.9,704.8z"/>
	<path id="Path_3827" class="st5" d="M373.3,721.2l-3.9-3.9L587.8,499l3.9,3.9L373.3,721.2z"/>
	<path id="Path_3828" class="st3" d="M304.1-34.6l3.9,3.9l59.9-59.9l-3.9-3.9L304.1-34.6z"/>
	<path id="Path_3829" class="st4" d="M320.4-18.3l3.9,3.9l59.9-59.9l-3.9-3.9L320.4-18.3z"/>
	<path id="Path_3830" class="st5" d="M336.8-1.9l3.9,3.9l59.9-59.9l-3.9-3.9L336.8-1.9z"/>
	<path id="Path_3831" class="st5" d="M353.2,14.5l3.9,3.9L417-41.5l-3.9-3.9L353.2,14.5z"/>
	<path id="Path_3832" class="st5" d="M369.6,30.9l3.9,3.9l59.9-59.9l-3.9-3.9L369.6,30.9z"/>
	<path id="Path_3833" class="st1" d="M260.7,148.9l3.9-3.9l-46.7-46.7l-3.9,3.9L260.7,148.9z"/>
	
		<rect id="Rectangle_7333" x="244.1" y="53.2" transform="matrix(-0.7071 0.7071 -0.7071 -0.7071 491.0744 -6.2835)" class="st2" width="5.5" height="90.8"/>
	
		<rect id="Rectangle_7334" x="252.1" y="16.7" transform="matrix(-0.7071 0.7071 -0.7071 -0.7071 487.3042 -54.2192)" class="st3" width="5.5" height="114.3"/>
	
		<rect id="Rectangle_7335" x="260.7" y="-18.8" transform="matrix(-0.7071 0.7071 -0.7071 -0.7071 484.6944 -101.7222)" class="st4" width="5.5" height="136.7"/>
	
		<rect id="Rectangle_7336" x="292.4" y="1.9" transform="matrix(-0.7071 0.7071 -0.7071 -0.7071 538.1122 -125.9729)" class="st5" width="5.5" height="93.2"/>
	
		<rect id="Rectangle_7337" x="297.3" y="-42.1" transform="matrix(-0.7071 0.7071 -0.7071 -0.7071 526.9032 -176.9055)" class="st6" width="5.5" height="125.5"/>
	
		<rect id="Rectangle_7338" x="307.2" y="-74.3" transform="matrix(-0.7071 0.7071 -0.7071 -0.7071 527.4402 -223.022)" class="st5" width="5.5" height="144.1"/>
	
		<rect id="Rectangle_7339" x="553.9" y="364" transform="matrix(-0.7071 0.7071 -0.7071 -0.7071 1262.2253 359.4097)" class="st1" width="5.5" height="154.2"/>
	
		<rect id="Rectangle_7340" x="570.3" y="347.7" transform="matrix(-0.7071 0.7071 -0.7071 -0.7071 1278.6576 319.8642)" class="st2" width="5.5" height="154.2"/>
	
		<rect id="Rectangle_7341" x="586.7" y="331.3" transform="matrix(-0.7071 0.7071 -0.7071 -0.7071 1295.1007 280.3142)" class="st3" width="5.5" height="154.2"/>
	
		<rect id="Rectangle_7342" x="603.1" y="314.9" transform="matrix(-0.7071 0.7071 -0.7071 -0.7071 1311.5139 240.7709)" class="st4" width="5.5" height="154.2"/>
	
		<rect id="Rectangle_7343" x="619.5" y="298.5" transform="matrix(-0.7071 0.7071 -0.7071 -0.7071 1327.7854 201.1477)" class="st5" width="5.5" height="154.2"/>
	
		<rect id="Rectangle_7344" x="635.9" y="282.1" transform="matrix(-0.7071 0.7071 -0.7071 -0.7071 1344.1428 161.5654)" class="st6" width="5.5" height="154.1"/>
	
		<rect id="Rectangle_7345" x="652.3" y="265.7" transform="matrix(-0.7071 0.7071 -0.7071 -0.7071 1360.6377 122.0618)" class="st5" width="5.5" height="154.2"/>
	<path id="Path_3834" class="st1" d="M-51.3,262.9l-3.9-3.9l-72.1,72.1l3.9,3.9L-51.3,262.9z"/>
	
		<rect id="Rectangle_7346" x="-137.5" y="265.6" transform="matrix(-0.7071 0.7071 -0.7071 -0.7071 142.2962 477.8481)" class="st6" width="219.4" height="5.5"/>
	
		<rect id="Rectangle_7347" x="-75.2" y="262.8" transform="matrix(-0.7071 0.7071 -0.7071 -0.7071 200.9911 447.8084)" class="st3" width="165.9" height="5.5"/>
	
		<rect id="Rectangle_7348" x="-151" y="317.3" transform="matrix(-0.7071 0.7071 -0.7071 -0.7071 202.5786 556.1088)" class="st4" width="274.2" height="5.5"/>
	
		<rect id="Rectangle_7349" x="-117.5" y="326.6" transform="matrix(-0.7071 0.7071 -0.7071 -0.7071 249.1941 555.4675)" class="st5" width="254.2" height="5.5"/>
	
		<rect id="Rectangle_7350" x="-86.6" y="336.9" transform="matrix(-0.7071 0.7071 -0.7071 -0.7071 294.8222 557.2152)" class="st5" width="237.2" height="5.5"/>
	
		<rect id="Rectangle_7351" x="-100.9" y="366.1" transform="matrix(-0.7071 0.7071 -0.7071 -0.7071 321.6436 604.371)" class="st5" width="273.2" height="5.5"/>
	<path id="Path_3835" class="st1" d="M35.2,406.6l-3.9-3.9l-40.6,40.6l3.9,3.9L35.2,406.6z"/>
	
		<rect id="Rectangle_7352" x="-84.4" y="474.9" transform="matrix(-0.7071 0.7071 -0.7071 -0.7071 326.0351 820.1597)" class="st2" width="155.2" height="5.5"/>
	
		<rect id="Rectangle_7353" x="-19.5" y="470.9" transform="matrix(-0.7071 0.7071 -0.7071 -0.7071 385.8648 787.397)" class="st3" width="98.7" height="5.5"/>
	
		<rect id="Rectangle_7354" x="-22" y="494.9" transform="matrix(-0.7071 0.7071 -0.7071 -0.7071 417.8614 822.3074)" class="st4" width="121.2" height="5.5"/>
	
		<rect id="Rectangle_7355" x="7.1" y="505.8" transform="matrix(-0.7071 0.7071 -0.7071 -0.7071 462.8418 825.3937)" class="st5" width="106.7" height="5.5"/>
	
		<rect id="Rectangle_7356" x="34.6" y="517.4" transform="matrix(-0.7071 0.7071 -0.7071 -0.7071 507.2883 830.2572)" class="st6" width="94.2" height="5.5"/>
	
		<rect id="Rectangle_7357" x="6.5" y="552.1" transform="matrix(-0.7071 0.7071 -0.7071 -0.7071 528.5966 890.7543)" class="st5" width="146.6" height="5.5"/>
	<path id="Path_3836" class="st1" d="M272.3,161.8l3.9,3.9L450.2-8.4l-3.9-3.9L272.3,161.8z"/>
	<path id="Path_3837" class="st2" d="M288.7,178.2l3.9,3.9L466.6,8l-3.9-3.9L288.7,178.2z"/>
	<path id="Path_3838" class="st3" d="M305,194.5l3.9,3.9L483,24.3l-3.9-3.9L305,194.5z"/>
	<path id="Path_3839" class="st4" d="M321.4,210.9l3.9,3.9L499.4,40.7l-3.9-3.9L321.4,210.9z"/>
	<path id="Path_3840" class="st5" d="M337.8,227.4l3.9,3.9L515.8,57.2l-3.9-3.9L337.8,227.4z"/>
	<path id="Path_3841" class="st6" d="M354.2,243.8l3.9,3.9L532.2,73.6l-3.9-3.9L354.2,243.8z"/>
	<path id="Path_3842" class="st5" d="M370.5,260.1l3.9,3.9L548.5,89.9l-3.9-3.9L370.5,260.1z"/>
</g>
</svg>
