<?xml version="1.0" encoding="utf-8"?>
<!-- Generator: Adobe Illustrator 24.2.3, SVG Export Plug-In . SVG Version: 6.00 Build 0)  -->
<svg version="1.1" id="Layer_1" xmlns="http://www.w3.org/2000/svg" xmlns:xlink="http://www.w3.org/1999/xlink" x="0px" y="0px"
	 viewBox="0 0 917 917" style="enable-background:new 0 0 917 917;" xml:space="preserve">
<style type="text/css">
	.st0{fill:none;}
	.st1{fill:#A7A4A5;}
	.st2{fill:#908E90;}
	.st3{fill:#7B7979;}
	.st4{fill:#656463;}
	.st5{fill:#4F4C4D;}
	.st6{fill:#51A2D9;}
</style>
<g id="Group_13268" >
	
		<rect id="Rectangle_7314" x="0.1" y="-0.1"  class="st0" width="648.3" height="648.5"/>
	<path id="Path_3811" class="st1" d="M240.9,318V-14.6h5.5V318H240.9z"/>
	
		<rect id="Rectangle_7315" x="150.1" y="196"  class="st2" width="233.4" height="5.5"/>
	
		<rect id="Rectangle_7316" x="219.8" y="245.2"  class="st3" width="140.4" height="5.4"/>
	
		<rect id="Rectangle_7317" x="198.9" y="201.1"  class="st4" width="228.5" height="5.5"/>
	
		<rect id="Rectangle_7318" x="236.6" y="215.6"  class="st5" width="199.5" height="5.5"/>
	
		<rect id="Rectangle_7319" x="204.9" y="160.7"  class="st6" width="309.2" height="5.5"/>
	
		<rect id="Rectangle_7320" x="250.4" y="183.1"  class="st5" width="264.5" height="5.5"/>
	
		<rect id="Rectangle_7321" x="-142.9" y="483.3"  class="st5" width="308.9" height="5.5"/>
	
		<rect id="Rectangle_7322" x="-119.7" y="483.3"  class="st5" width="308.9" height="5.5"/>
	
		<rect id="Rectangle_7323" x="-96.5" y="483.3"  class="st5" width="308.9" height="5.5"/>
	<path id="Path_3812" class="st1" d="M79.8,478V169.1h5.5V478H79.8z"/>
	
		<rect id="Rectangle_7324" x="-48.4" y="321.2"  class="st2" width="308.1" height="5.5"/>
	
		<rect id="Rectangle_7325" x="-25.4" y="320.9"  class="st3" width="308.6" height="5.5"/>
	
		<rect id="Rectangle_7326" x="-2.4" y="320.8"  class="st4" width="308.9" height="5.5"/>
	
		<rect id="Rectangle_7327" x="20.7" y="320.8"  class="st6" width="308.9" height="5.5"/>
	
		<rect id="Rectangle_7328" x="43.9" y="320.8"  class="st5" width="308.9" height="5.5"/>
	
		<rect id="Rectangle_7329" x="67.1" y="320.8"  class="st5" width="308.9" height="5.5"/>
	<path id="Path_3813" class="st1" d="M564.7,640.5V331.6h5.5v308.9H564.7z"/>
	
		<rect id="Rectangle_7330" x="436.1" y="483.3"  class="st2" width="308.9" height="5.5"/>
	
		<rect id="Rectangle_7331" x="459.3" y="483.3"  class="st3" width="308.9" height="5.5"/>
	
		<rect id="Rectangle_7332" x="482.5" y="483.3"  class="st4" width="308.9" height="5.5"/>
	<path id="Path_3814" class="st1" d="M239.9,338v-5.5h308.9v5.5H239.9z"/>
	<path id="Path_3815" class="st2" d="M239.9,361.2v-5.5h308.9v5.5H239.9z"/>
	<path id="Path_3816" class="st3" d="M239.9,384.4v-5.5h308.9v5.5H239.9z"/>
	<path id="Path_3817" class="st4" d="M239.9,407.5V402h308.9v5.5H239.9z"/>
	<path id="Path_3818" class="st5" d="M239.9,430.7v-5.5h308.9v5.5H239.9z"/>
	<path id="Path_3819" class="st5" d="M239.9,453.9v-5.5h308.9v5.5H239.9z"/>
	<path id="Path_3820" class="st5" d="M239.9,477.1v-5.5h308.9v5.5H239.9z"/>
	<path id="Path_3821" class="st1" d="M78.2,500.6v-5.5H387v5.5H78.2z"/>
	<path id="Path_3822" class="st2" d="M78.2,523.7v-5.5H387v5.5H78.2z"/>
	<path id="Path_3823" class="st3" d="M78.2,546.9v-5.5H387v5.5H78.2z"/>
	<path id="Path_3824" class="st4" d="M78.2,570.1v-5.5H387v5.5H78.2z"/>
	<path id="Path_3825" class="st5" d="M78.2,593.3v-5.5H387v5.5H78.2z"/>
	<path id="Path_3826" class="st6" d="M78.2,616.4v-5.5H387v5.5L78.2,616.4z"/>
	<path id="Path_3827" class="st5" d="M78.2,639.6v-5.5H387v5.5L78.2,639.6z"/>
	<path id="Path_3828" class="st3" d="M563.7,56.2v5.5h84.7v-5.5L563.7,56.2z"/>
	<path id="Path_3829" class="st4" d="M563.7,79.3v5.5h84.7v-5.5H563.7z"/>
	<path id="Path_3830" class="st5" d="M563.7,102.5v5.5h84.7v-5.5H563.7z"/>
	<path id="Path_3831" class="st5" d="M563.7,125.7v5.5h84.7v-5.5H563.7z"/>
	<path id="Path_3832" class="st5" d="M563.7,148.9v5.5h84.7v-5.5H563.7z"/>
	<path id="Path_3833" class="st1" d="M403.2,155.3h5.5V89.2h-5.5L403.2,155.3z"/>
	
		<rect id="Rectangle_7333" x="383.7" y="107.2"  class="st2" width="90.8" height="5.5"/>
	
		<rect id="Rectangle_7334" x="395.1" y="95.4"  class="st3" width="114.3" height="5.5"/>
	
		<rect id="Rectangle_7335" x="407.1" y="84.2"  class="st4" width="136.7" height="5.5"/>
	
		<rect id="Rectangle_7336" x="452" y="105.9"  class="st5" width="93.2" height="5.5"/>
	
		<rect id="Rectangle_7337" x="459" y="89.8"  class="st6" width="125.5" height="5.5"/>
	
		<rect id="Rectangle_7338" x="472.9" y="80.5"  class="st5" width="144.1" height="5.5"/>
	
		<rect id="Rectangle_7339" x="328.8" y="568.5"  class="st1" width="154.2" height="5.5"/>
	
		<rect id="Rectangle_7340" x="352" y="568.5"  class="st2" width="154.2" height="5.5"/>
	
		<rect id="Rectangle_7341" x="375.2" y="568.5"  class="st3" width="154.2" height="5.5"/>
	
		<rect id="Rectangle_7342" x="398.4" y="568.5"  class="st4" width="154.2" height="5.5"/>
	
		<rect id="Rectangle_7343" x="421.5" y="568.5"  class="st5" width="154.2" height="5.5"/>
	
		<rect id="Rectangle_7344" x="444.7" y="568.5"  class="st6" width="154.1" height="5.5"/>
	
		<rect id="Rectangle_7345" x="467.9" y="568.5"  class="st5" width="154.2" height="5.5"/>
	<path id="Path_3834" class="st1" d="M102,15.3V9.8H0v5.5H102z"/>
	
		<rect id="Rectangle_7346" x="112" y="-74"  class="st6" width="5.5" height="219.4"/>
	
		<rect id="Rectangle_7347" x="139.2" y="-24"  class="st3" width="5.5" height="165.9"/>
	
		<rect id="Rectangle_7348" x="85.4" y="-55"  class="st4" width="5.5" height="274.2"/>
	
		<rect id="Rectangle_7349" x="95.4" y="-21.8"  class="st5" width="5.5" height="254.2"/>
	
		<rect id="Rectangle_7350" x="103.9" y="9.8"  class="st5" width="5.5" height="237.2"/>
	
		<rect id="Rectangle_7351" x="85.9" y="15"  class="st5" width="5.5" height="273.2"/>
	<path id="Path_3835" class="st1" d="M61.6,178.1v-5.5H4.2v5.5H61.6z"/>
	
		<rect id="Rectangle_7352" x="-21.1" y="120.9"  class="st2" width="5.5" height="155.2"/>
	
		<rect id="Rectangle_7353" x="7.6" y="172.3"  class="st3" width="5.5" height="98.7"/>
	
		<rect id="Rectangle_7354" x="-3.1" y="184.3"  class="st4" width="5.5" height="121.2"/>
	
		<rect id="Rectangle_7355" x="4.6" y="214.7"  class="st5" width="5.5" height="106.7"/>
	
		<rect id="Rectangle_7356" x="11.4" y="244.1"  class="st6" width="5.5" height="94.2"/>
	
		<rect id="Rectangle_7357" x="-14.4" y="241.1"  class="st5" width="5.5" height="146.6"/>
	<path id="Path_3836" class="st1" d="M402.3,172.6v5.5h246.2v-5.5H402.3z"/>
	<path id="Path_3837" class="st2" d="M402.3,195.8v5.5h246.2v-5.5H402.3z"/>
	<path id="Path_3838" class="st3" d="M402.3,218.9v5.5h246.2v-5.5L402.3,218.9z"/>
	<path id="Path_3839" class="st4" d="M402.3,242.1v5.5h246.2v-5.5H402.3z"/>
	<path id="Path_3840" class="st5" d="M402.3,265.3v5.5h246.2v-5.5H402.3z"/>
	<path id="Path_3841" class="st6" d="M402.3,288.5v5.5h246.2v-5.5H402.3z"/>
	<path id="Path_3842" class="st5" d="M402.3,311.6v5.5h246.2v-5.5H402.3z"/>
</g>
</svg>
