<?xml version="1.0" encoding="utf-8"?>
<!-- Generator: Adobe Illustrator 24.2.3, SVG Export Plug-In . SVG Version: 6.00 Build 0)  -->
<svg version="1.1" id="Layer_1" xmlns="http://www.w3.org/2000/svg" xmlns:xlink="http://www.w3.org/1999/xlink" x="0px" y="0px"
	 viewBox="0 0 886.5 877.8" style="enable-background:new 0 0 886.5 877.8;" xml:space="preserve">
<style type="text/css">
	.st0{fill:none;}
	.st1{fill:#A7A4A5;}
	.st2{fill:#908E90;}
	.st3{fill:#7B7979;}
	.st4{fill:#656463;}
	.st5{fill:#4F4C4D;}
	.st6{fill:#51A2D9;}
</style>
<g id="Group_13160" transform="translate(238 229.448)">
	<rect id="Rectangle_7015" y="0" class="st0" width="648.5" height="648.3"/>
	<path id="Path_3587" class="st1" d="M240.9,318V-14.6h5.5V318H240.9z"/>
	<rect id="Rectangle_7016" x="264.1" y="-64.9" class="st2" width="5.5" height="380.4"/>
	<rect id="Rectangle_7017" x="287.4" y="-107.4" class="st3" width="5.4" height="425.4"/>
	<rect id="Rectangle_7018" x="310.4" y="-229.4" class="st4" width="5.5" height="547.5"/>
	<rect id="Rectangle_7019" x="333.6" y="118.6" class="st5" width="5.5" height="199.5"/>
	<rect id="Rectangle_7020" x="356.8" y="8.9" class="st6" width="5.5" height="309.2"/>
	<rect id="Rectangle_7021" x="379.9" y="53.5" class="st5" width="5.5" height="264.5"/>
	<rect id="Rectangle_7022" x="8.8" y="331.6" class="st5" width="5.5" height="308.9"/>
	<rect id="Rectangle_7023" x="32" y="331.6" class="st5" width="5.5" height="308.9"/>
	<rect id="Rectangle_7024" x="55.2" y="331.6" class="st5" width="5.5" height="308.9"/>
	<path id="Path_3588" class="st1" d="M79.8,478V169.1h5.5V478H79.8z"/>
	<rect id="Rectangle_7025" x="102.9" y="169.9" class="st2" width="5.5" height="308.1"/>
	<rect id="Rectangle_7026" x="126.1" y="169.4" class="st3" width="5.5" height="308.6"/>
	<rect id="Rectangle_7027" x="149.3" y="169.1" class="st4" width="5.5" height="308.9"/>
	<rect id="Rectangle_7028" x="172.5" y="169.1" class="st6" width="5.5" height="308.9"/>
	<rect id="Rectangle_7029" x="195.6" y="169.1" class="st5" width="5.5" height="308.9"/>
	<rect id="Rectangle_7030" x="218.8" y="169.1" class="st5" width="5.5" height="308.9"/>
	<path id="Path_3589" class="st1" d="M564.7,640.5V331.6h5.5v308.9H564.7z"/>
	<rect id="Rectangle_7031" x="587.8" y="331.6" class="st2" width="5.5" height="308.9"/>
	<rect id="Rectangle_7032" x="611" y="331.6" class="st3" width="5.5" height="308.9"/>
	<rect id="Rectangle_7033" x="634.2" y="331.6" class="st4" width="5.5" height="308.9"/>
	<path id="Path_3590" class="st1" d="M239.9,338v-5.5h308.9v5.5H239.9z"/>
	<path id="Path_3591" class="st2" d="M239.9,361.2v-5.5h308.9v5.5H239.9z"/>
	<path id="Path_3592" class="st3" d="M239.9,384.4v-5.5h308.9v5.5H239.9z"/>
	<path id="Path_3593" class="st4" d="M239.9,407.5V402h308.9v5.5H239.9z"/>
	<path id="Path_3594" class="st5" d="M239.9,430.7v-5.5h308.9v5.5H239.9z"/>
	<path id="Path_3595" class="st5" d="M239.9,453.9v-5.5h308.9v5.5H239.9z"/>
	<path id="Path_3596" class="st5" d="M239.9,477.1v-5.5h308.9v5.5H239.9z"/>
	<path id="Path_3597" class="st1" d="M78.2,500.6v-5.5H387v5.5H78.2z"/>
	<path id="Path_3598" class="st2" d="M78.2,523.7v-5.5H387v5.5H78.2z"/>
	<path id="Path_3599" class="st3" d="M78.2,546.9v-5.5H387v5.5H78.2z"/>
	<path id="Path_3600" class="st4" d="M78.2,570.1v-5.5H387v5.5H78.2z"/>
	<path id="Path_3601" class="st5" d="M78.2,593.3v-5.5H387v5.5H78.2z"/>
	<path id="Path_3602" class="st6" d="M78.2,616.4v-5.5H387v5.5H78.2z"/>
	<path id="Path_3603" class="st5" d="M78.2,639.6v-5.5H387v5.5L78.2,639.6z"/>
	<path id="Path_3606" class="st3" d="M563.7,56.2v5.5h84.7v-5.5L563.7,56.2z"/>
	<path id="Path_3607" class="st4" d="M563.7,79.3v5.5h84.7v-5.5H563.7z"/>
	<path id="Path_3608" class="st5" d="M563.7,102.5v5.5h84.7v-5.5H563.7z"/>
	<path id="Path_3609" class="st5" d="M563.7,125.7v5.5h84.7v-5.5H563.7z"/>
	<path id="Path_3610" class="st5" d="M563.7,148.9v5.5h84.7v-5.5H563.7z"/>
	<path id="Path_3611" class="st1" d="M403.2,155.3h5.5V89.2h-5.5L403.2,155.3z"/>
	<rect id="Rectangle_7034" x="426.3" y="64.5" class="st2" width="5.5" height="90.8"/>
	<rect id="Rectangle_7035" x="449.5" y="40.9" class="st3" width="5.5" height="114.3"/>
	<rect id="Rectangle_7036" x="472.7" y="18.6" class="st4" width="5.5" height="136.7"/>
	<rect id="Rectangle_7037" x="495.9" y="62" class="st5" width="5.5" height="93.2"/>
	<rect id="Rectangle_7038" x="519" y="29.8" class="st6" width="5.5" height="125.5"/>
	<rect id="Rectangle_7039" x="542.2" y="11.2" class="st5" width="5.5" height="144.1"/>
	<rect id="Rectangle_7040" x="403.2" y="494.2" class="st1" width="5.5" height="154.2"/>
	<rect id="Rectangle_7041" x="426.3" y="494.2" class="st2" width="5.5" height="154.2"/>
	<rect id="Rectangle_7042" x="449.5" y="494.2" class="st3" width="5.5" height="154.2"/>
	<rect id="Rectangle_7043" x="472.7" y="494.2" class="st4" width="5.5" height="154.2"/>
	<rect id="Rectangle_7044" x="495.9" y="494.2" class="st5" width="5.5" height="154.2"/>
	<rect id="Rectangle_7045" x="519" y="494.2" class="st6" width="5.5" height="154.1"/>
	<rect id="Rectangle_7046" x="542.2" y="494.2" class="st5" width="5.5" height="154.2"/>
	<rect id="Rectangle_7047" y="33" class="st6" width="224.4" height="5.5"/>
	<rect id="Rectangle_7048" x="78" y="56.2" class="st3" width="146.9" height="5.5"/>
	<rect id="Rectangle_7049" x="60" y="79.3" class="st4" width="165.2" height="5.5"/>
	<rect id="Rectangle_7050" x="113" y="102.5" class="st5" width="112.2" height="5.5"/>
	<rect id="Rectangle_7051" x="-65" y="125.7" class="st5" width="290.2" height="5.5"/>
	<rect id="Rectangle_7052" x="-73" y="148.9" class="st5" width="298.2" height="5.5"/>
	<path id="Path_3613" class="st1" d="M61.6,178.1v-5.5h-173.8v5.5H61.6z"/>
	<rect id="Rectangle_7053" x="-89" y="195.8" class="st2" width="148.2" height="5.5"/>
	<rect id="Rectangle_7054" x="-135" y="218.9" class="st3" width="194.7" height="5.5"/>
	<rect id="Rectangle_7055" x="-238" y="242.1" class="st4" width="298.2" height="5.5"/>
	<rect id="Rectangle_7056" x="-147" y="265.3" class="st5" width="207.7" height="5.5"/>
	<rect id="Rectangle_7057" x="-73" y="288.5" class="st6" width="134.2" height="5.5"/>
	<rect id="Rectangle_7058" y="311.7" class="st5" width="61.6" height="5.5"/>
	<path id="Path_3614" class="st1" d="M402.3,172.6v5.5h246.2v-5.5H402.3z"/>
	<path id="Path_3615" class="st2" d="M402.3,195.8v5.5h246.2v-5.5H402.3z"/>
	<path id="Path_3616" class="st3" d="M402.3,218.9v5.5h246.2v-5.5L402.3,218.9z"/>
	<path id="Path_3617" class="st4" d="M402.3,242.1v5.5h246.2v-5.5H402.3z"/>
	<path id="Path_3618" class="st5" d="M402.3,265.3v5.5h246.2v-5.5H402.3z"/>
	<path id="Path_3619" class="st6" d="M402.3,288.5v5.5h246.2v-5.5H402.3z"/>
	<path id="Path_3620" class="st5" d="M402.3,311.6v5.5h246.2v-5.5H402.3z"/>
</g>
</svg>
