<?xml version="1.0" encoding="utf-8"?>
<!-- Generator: Adobe Illustrator 24.2.3, SVG Export Plug-In . SVG Version: 6.00 Build 0)  -->
<svg version="1.1" id="Layer_1" xmlns="http://www.w3.org/2000/svg" xmlns:xlink="http://www.w3.org/1999/xlink" x="0px" y="0px"
	 viewBox="0 0 480.8 464.3" style="enable-background:new 0 0 480.8 464.3;" xml:space="preserve">
<style type="text/css">
	.st0{fill:none;}
	.st1{fill:#A7A4A5;}
	.st2{fill:#908E90;}
	.st3{fill:#7B7979;}
	.st4{fill:#656463;}
	.st5{fill:#4F4C4D;}
	.st6{fill:#51A2D9;}
</style>
<g>
	<rect id="Rectangle_45_1_" x="25.3" y="17.1" class="st0" width="430.3" height="430.1"/>
	<path id="Path_18_1_" class="st1" d="M185.1,228.1V23h3.6v205.1H185.1z"/>
	<rect id="Rectangle_46_1_" x="200.5" y="23" class="st2" width="3.6" height="203.4"/>
	<rect id="Rectangle_47_1_" x="215.9" y="23" class="st3" width="3.6" height="205.1"/>
	<rect id="Rectangle_48_1_" x="231.2" y="23" class="st4" width="3.6" height="205.1"/>
	<rect id="Rectangle_49_1_" x="246.6" y="23" class="st5" width="3.6" height="205.1"/>
	<rect id="Rectangle_50_1_" x="262" y="23" class="st6" width="3.6" height="205.1"/>
	<rect id="Rectangle_51_1_" x="277.3" y="23" class="st5" width="3.6" height="205.1"/>
	<rect id="Rectangle_52_1_" x="31.1" y="237.1" class="st5" width="3.6" height="205"/>
	<rect id="Rectangle_53_1_" x="46.5" y="237.1" class="st5" width="3.6" height="205"/>
	<rect id="Rectangle_54_1_" x="61.9" y="237.1" class="st5" width="3.6" height="205"/>
	<path id="Path_19_1_" class="st1" d="M78.2,334.2v-205h3.6v205H78.2z"/>
	<rect id="Rectangle_55_1_" x="93.5" y="129.8" class="st2" width="3.6" height="204.4"/>
	<rect id="Rectangle_56_1_" x="108.9" y="129.5" class="st3" width="3.6" height="204.7"/>
	<rect id="Rectangle_57_1_" x="124.3" y="129.2" class="st4" width="3.6" height="205"/>
	<rect id="Rectangle_58_1_" x="139.7" y="129.2" class="st6" width="3.6" height="205"/>
	<rect id="Rectangle_59_1_" x="155.1" y="129.2" class="st5" width="3.6" height="205"/>
	<rect id="Rectangle_60_1_" x="170.4" y="129.2" class="st5" width="3.6" height="205"/>
	<path id="Path_20_1_" class="st1" d="M399.9,442.1v-205h3.6v205H399.9z"/>
	<rect id="Rectangle_61_1_" x="415.3" y="237.1" class="st2" width="3.6" height="205"/>
	<rect id="Rectangle_62_1_" x="430.6" y="237.1" class="st3" width="3.6" height="205"/>
	<rect id="Rectangle_63_1_" x="446" y="237.1" class="st4" width="3.6" height="205"/>
	<path id="Path_21_1_" class="st1" d="M184.4,241.3v-3.6h204.9v3.6H184.4z"/>
	<path id="Path_22_1_" class="st2" d="M184.4,256.7v-3.6h204.9v3.6H184.4z"/>
	<path id="Path_23_1_" class="st3" d="M184.4,272.1v-3.6h204.9v3.6H184.4z"/>
	<path id="Path_24_1_" class="st4" d="M184.4,287.5v-3.6h204.9v3.6H184.4z"/>
	<path id="Path_25_1_" class="st5" d="M184.4,302.9v-3.6h204.9v3.6H184.4z"/>
	<path id="Path_26_1_" class="st5" d="M184.4,318.2v-3.6h204.9v3.6H184.4z"/>
	<path id="Path_27_1_" class="st5" d="M184.4,333.6V330h204.9v3.6H184.4z"/>
	<path id="Path_28_1_" class="st1" d="M77.1,349.2v-3.6H282v3.6H77.1z"/>
	<path id="Path_29_1_" class="st2" d="M77.1,364.6v-3.6H282v3.6H77.1z"/>
	<path id="Path_30_1_" class="st3" d="M77.1,379.9v-3.6H282v3.6H77.1z"/>
	<path id="Path_31_1_" class="st4" d="M77.1,395.3v-3.6H282v3.6H77.1z"/>
	<path id="Path_32_1_" class="st5" d="M77.1,410.7v-3.6H282v3.6H77.1z"/>
	<path id="Path_33_1_" class="st6" d="M77.1,426.1v-3.6H282v3.6H77.1z"/>
	<path id="Path_34_1_" class="st5" d="M77.1,441.5v-3.6H282v3.6L77.1,441.5z"/>
	<path id="Path_35_1_" class="st1" d="M399.3,23.6v3.6h56.2v-3.6H399.3z"/>
	<path id="Path_36_1_" class="st6" d="M399.3,39v3.6h56.2V39H399.3z"/>
	<path id="Path_37_1_" class="st3" d="M399.3,54.3V58h56.2v-3.6H399.3z"/>
	<path id="Path_38_1_" class="st4" d="M399.3,69.7v3.6h56.2v-3.6H399.3z"/>
	<path id="Path_39_1_" class="st5" d="M399.3,85.1v3.6h56.2v-3.6H399.3z"/>
	<path id="Path_40_1_" class="st5" d="M399.3,100.5v3.6h56.2v-3.6H399.3z"/>
	<path id="Path_41_1_" class="st5" d="M399.3,115.9v3.6h56.2v-3.6H399.3z"/>
	<path id="Path_42_1_" class="st1" d="M292.8,120.1h3.6v-103h-3.6V120.1z"/>
	<rect id="Rectangle_64_1_" x="308.1" y="17.1" class="st2" width="3.6" height="103"/>
	<rect id="Rectangle_65_1_" x="323.5" y="17.1" class="st3" width="3.6" height="103"/>
	<rect id="Rectangle_66_1_" x="338.9" y="17.1" class="st4" width="3.6" height="103"/>
	<rect id="Rectangle_67_1_" x="354.3" y="17.1" class="st5" width="3.6" height="103"/>
	<rect id="Rectangle_68_1_" x="369.6" y="17.1" class="st6" width="3.6" height="103"/>
	<rect id="Rectangle_69_1_" x="385" y="17.1" class="st5" width="3.6" height="103"/>
	<rect id="Rectangle_70_1_" x="292.8" y="344.9" class="st1" width="3.6" height="102.3"/>
	<rect id="Rectangle_71_1_" x="308.1" y="344.9" class="st2" width="3.6" height="102.3"/>
	<rect id="Rectangle_72_1_" x="323.5" y="345" class="st3" width="3.6" height="102.3"/>
	<rect id="Rectangle_73_1_" x="338.9" y="344.9" class="st4" width="3.6" height="102.3"/>
	<rect id="Rectangle_74_1_" x="354.3" y="345" class="st5" width="3.6" height="102.3"/>
	<rect id="Rectangle_75_1_" x="369.6" y="345" class="st6" width="3.6" height="102.3"/>
	<rect id="Rectangle_76_1_" x="385" y="344.9" class="st5" width="3.6" height="102.3"/>
	<path id="Path_43_1_" class="st1" d="M174.7,27.2v-3.6H25.3v3.6H174.7z"/>
	<rect id="Rectangle_77_1_" x="25.3" y="39" class="st6" width="148.9" height="3.6"/>
	<rect id="Rectangle_78_1_" x="25.3" y="54.3" class="st3" width="149.2" height="3.6"/>
	<rect id="Rectangle_79_1_" x="25.3" y="69.7" class="st4" width="149.4" height="3.6"/>
	<rect id="Rectangle_80_1_" x="25.3" y="85.1" class="st5" width="149.4" height="3.6"/>
	<rect id="Rectangle_81_1_" x="25.3" y="100.5" class="st5" width="149.4" height="3.6"/>
	<rect id="Rectangle_82_1_" x="25.3" y="115.9" class="st5" width="149.4" height="3.6"/>
	<path id="Path_44_1_" class="st1" d="M66.1,135.2v-3.6H25.3v3.6H66.1z"/>
	<rect id="Rectangle_83_1_" x="25.3" y="147" class="st2" width="39.3" height="3.6"/>
	<rect id="Rectangle_84_1_" x="25.3" y="162.3" class="st3" width="39.6" height="3.6"/>
	<rect id="Rectangle_85_1_" x="25.3" y="177.7" class="st4" width="40" height="3.6"/>
	<rect id="Rectangle_86_1_" x="25.3" y="193.1" class="st5" width="40.3" height="3.6"/>
	<rect id="Rectangle_87_1_" x="25.3" y="208.5" class="st6" width="40.6" height="3.6"/>
	<rect id="Rectangle_88_1_" x="25.3" y="223.9" class="st5" width="40.9" height="3.6"/>
	<path id="Path_45_1_" class="st1" d="M292.2,131.6v3.6h163.4v-3.6H292.2z"/>
	<path id="Path_46_1_" class="st2" d="M292.2,147v3.6h163.4V147H292.2z"/>
	<path id="Path_47_1_" class="st3" d="M292.2,162.3v3.6h163.4v-3.6H292.2z"/>
	<path id="Path_48_1_" class="st4" d="M292.2,177.7v3.6h163.4v-3.6H292.2z"/>
	<path id="Path_49_1_" class="st5" d="M292.2,193.1v3.6h163.4v-3.6H292.2z"/>
	<path id="Path_50_1_" class="st6" d="M292.2,208.5v3.6h163.4v-3.6H292.2z"/>
	<path id="Path_51_1_" class="st5" d="M292.2,223.9v3.6h163.4v-3.6H292.2z"/>
</g>
</svg>
